<mxfile host="app.diagrams.net" modified="2022-11-19T08:48:56.794Z" agent="5.0 (Windows NT 10.0; Win64; x64) AppleWebKit/537.36 (KHTML, like Gecko) Chrome/107.0.0.0 Safari/537.36 Edg/107.0.1418.42" etag="f3WWRPd-s6_9PCQTp-qn" version="20.5.3" type="github">
  <diagram id="VMWhMykJ5y7UkcjA-Jzh" name="第 1 页">
    <mxGraphModel dx="865" dy="528" grid="1" gridSize="10" guides="1" tooltips="1" connect="1" arrows="1" fold="1" page="1" pageScale="1" pageWidth="827" pageHeight="1169" math="0" shadow="0">
      <root>
        <mxCell id="0" />
        <mxCell id="1" parent="0" />
        <mxCell id="kI6TIsqGXWPYMUP6KDOo-11" value="" style="rounded=0;whiteSpace=wrap;html=1;" vertex="1" parent="1">
          <mxGeometry x="160" y="415" width="530" height="170" as="geometry" />
        </mxCell>
        <mxCell id="kI6TIsqGXWPYMUP6KDOo-1" value="5" style="rounded=0;whiteSpace=wrap;html=1;fillColor=#fff2cc;strokeColor=#d6b656;" vertex="1" parent="1">
          <mxGeometry x="249" y="490" width="100" height="40" as="geometry" />
        </mxCell>
        <mxCell id="kI6TIsqGXWPYMUP6KDOo-2" value="" style="rounded=0;whiteSpace=wrap;html=1;" vertex="1" parent="1">
          <mxGeometry x="349" y="490" width="100" height="40" as="geometry" />
        </mxCell>
        <mxCell id="kI6TIsqGXWPYMUP6KDOo-10" style="edgeStyle=orthogonalEdgeStyle;rounded=0;orthogonalLoop=1;jettySize=auto;html=1;exitX=0.5;exitY=0;exitDx=0;exitDy=0;entryX=0.5;entryY=0;entryDx=0;entryDy=0;" edge="1" parent="1" source="kI6TIsqGXWPYMUP6KDOo-3" target="kI6TIsqGXWPYMUP6KDOo-1">
          <mxGeometry relative="1" as="geometry">
            <Array as="points">
              <mxPoint x="499" y="440" />
              <mxPoint x="299" y="440" />
            </Array>
          </mxGeometry>
        </mxCell>
        <mxCell id="kI6TIsqGXWPYMUP6KDOo-3" value="地址" style="rounded=0;whiteSpace=wrap;html=1;fillColor=#d5e8d4;strokeColor=#82b366;" vertex="1" parent="1">
          <mxGeometry x="449" y="490" width="100" height="40" as="geometry" />
        </mxCell>
        <mxCell id="kI6TIsqGXWPYMUP6KDOo-4" value="栈" style="text;html=1;strokeColor=none;fillColor=none;align=center;verticalAlign=middle;whiteSpace=wrap;rounded=0;" vertex="1" parent="1">
          <mxGeometry x="179" y="495" width="60" height="30" as="geometry" />
        </mxCell>
        <mxCell id="kI6TIsqGXWPYMUP6KDOo-5" value="" style="rounded=0;whiteSpace=wrap;html=1;" vertex="1" parent="1">
          <mxGeometry x="549" y="490" width="100" height="40" as="geometry" />
        </mxCell>
        <mxCell id="kI6TIsqGXWPYMUP6KDOo-6" value="a" style="text;html=1;strokeColor=none;fillColor=none;align=center;verticalAlign=middle;whiteSpace=wrap;rounded=0;" vertex="1" parent="1">
          <mxGeometry x="269" y="540" width="60" height="30" as="geometry" />
        </mxCell>
        <mxCell id="kI6TIsqGXWPYMUP6KDOo-7" value="b = &amp;amp;a" style="text;html=1;strokeColor=none;fillColor=none;align=center;verticalAlign=middle;whiteSpace=wrap;rounded=0;" vertex="1" parent="1">
          <mxGeometry x="469" y="540" width="60" height="30" as="geometry" />
        </mxCell>
      </root>
    </mxGraphModel>
  </diagram>
</mxfile>
